<?xml version="1.0" standalone="no"?>
<!DOCTYPE svg PUBLIC "-//W3C//DTD SVG 20010904//EN"
 "http://www.w3.org/TR/2001/REC-SVG-20010904/DTD/svg10.dtd">
<svg version="1.0" xmlns="http://www.w3.org/2000/svg"
 width="300.000000pt" height="300.000000pt" viewBox="0 0 300.000000 300.000000"
 preserveAspectRatio="xMidYMid meet">
<metadata>
Created by potrace 1.11, written by Peter Selinger 2001-2013
</metadata>
<g transform="translate(0.000000,300.000000) scale(0.100000,-0.100000)"
fill="#000000" stroke="none">
<path d="M1369 2996 c-2 -2 -26 -7 -54 -10 -83 -10 -116 -16 -195 -37 -107
-29 -264 -92 -344 -139 -37 -22 -70 -40 -73 -40 -2 0 -46 -31 -97 -70 -379
-286 -598 -716 -600 -1180 -1 -171 6 -240 39 -375 84 -342 283 -643 562 -849
203 -150 439 -248 683 -283 108 -15 469 -7 499 12 4 2 18 6 32 8 44 8 113 28
169 48 226 82 405 194 565 354 133 132 216 248 293 405 49 101 94 223 106 284
2 12 9 44 16 71 19 85 25 154 25 310 0 149 -4 189 -25 295 -6 30 -13 65 -16
77 -9 48 -69 203 -108 283 -113 230 -280 424 -493 573 -29 20 -56 37 -60 37
-3 0 -14 6 -22 14 -14 11 -128 71 -186 97 -67 30 -245 82 -325 94 -25 4 -54 9
-65 12 -25 6 -321 13 -326 9z"/>
</g>
</svg>
