<?xml version="1.0" encoding="UTF-8"?><!DOCTYPE svg PUBLIC "-//W3C//DTD SVG 1.1//EN" "http://www.w3.org/Graphics/SVG/1.1/DTD/svg11.dtd"><svg xmlns="http://www.w3.org/2000/svg" xmlns:xlink="http://www.w3.org/1999/xlink" height="100px" id="Layer_1" version="1.1" viewBox="0 0 100 100" width="100px" xml:space="preserve"><defs><path id="SVGID_1_" d="M0 0h100v100H0z"/></defs><path d="M10.084 28C17.59 14 32.642 4.847 50 4.847c11.236 0 21.502 4.787 29.387 11.545-2.253-.436-4.713.054-7.189 1.471-5.801 3.326-7.696 12.74-.176 17.468 4.696 2.935 6.367 10.284 6.209 14.771-.155 4.496-10.917 25.138-10.917 25.138L56.836 39.26s-.361-2.524-.361-3.252c0-.918.303-2.042.869-2.683.39-.429.986-1.325 1.69-1.325H64v-4H37v4h.837c.884 0 1.749 1.189 2.583 2.043.986 1.018 2.227 4.848 3.73 8.822l3.926 12.932-8.461 19.553-9.283-39.078s.274-2.678.835-3.132c.366-.313.928-1.14 1.578-1.14H33v-4H10.084zm5.293 6.791S13.193 32 10.875 32H8.523C6.254 37 5 43.715 5 49.869 5 68.383 16.354 84.262 32.529 91.03L15.377 34.791zm73.348-7.147c.855 4.058.678 8.979-.99 14.393-4.351 14.087-15.121 39.428-19.291 49.082C84.097 84.129 95 68.527 95 50.39a44.198 44.198 0 0 0-6.275-22.746M50.909 65.682L39.404 93.784A45.48 45.48 0 0 0 50 95.042c3.781 0 7.449-.469 10.957-1.34l-10.048-28.02z"/><metadata><rdf:RDF xmlns:rdf="http://www.w3.org/1999/02/22-rdf-syntax-ns#" xmlns:rdfs="http://www.w3.org/2000/01/rdf-schema#" xmlns:dc="http://purl.org/dc/elements/1.1/"><rdf:Description about="https://iconscout.com/legal#licenses" dc:title="wordpress" dc:description="wordpress" dc:publisher="Iconscout" dc:date="2017-09-19" dc:format="image/svg+xml" dc:language="en"><dc:creator><rdf:Bag><rdf:li>Vincent Le Moign</rdf:li></rdf:Bag></dc:creator></rdf:Description></rdf:RDF></metadata></svg>
